<?xml version="1.0" encoding="UTF-8"?><svg version="1.1" width="24px" height="24px" viewBox="0 0 24.0 24.0" xmlns="http://www.w3.org/2000/svg" xmlns:xlink="http://www.w3.org/1999/xlink"><defs><clipPath id="i0"><path d="M10,0 C15.5228475,0 20,4.4771525 20,10 C20,15.5228475 15.5228475,20 10,20 C4.4771525,20 0,15.5228475 0,10 C0,4.4771525 4.4771525,0 10,0 Z M10,2 C5.581722,2 2,5.581722 2,10 C2,14.418278 5.581722,18 10,18 C14.418278,18 18,14.418278 18,10 C18,5.581722 14.418278,2 10,2 Z M9.99878792,13.2 C10.5510727,13.2 10.9987879,13.6477153 10.9987879,14.2 C10.9987879,14.7578001 10.5510727,15.2055153 9.99878792,15.2055153 C9.44650317,15.2055153 8.99878792,14.7578001 8.99878792,14.2055153 C8.99878792,13.6477153 9.44650317,13.2 9.99878792,13.2 Z M10.2486364,5 C11.7548153,5 12.9975758,6.17572623 12.9962582,7.60328393 C13.0524624,8.6970555 12.4708531,9.72243516 11.5215753,10.1719506 L11.449,10.202 L11.3968059,10.2371952 C11.194978,10.396719 11.0122944,10.8168351 10.997349,11.3226788 L10.9980461,11.4768289 C11.0193149,12.028704 10.5891736,12.4933289 10.0372986,12.5145977 C9.4854235,12.5358666 9.02079857,12.1057252 8.99952973,11.5538502 C8.94803551,10.2176995 9.52409342,8.94606687 10.5385837,8.42107675 L10.6363594,8.3769567 C10.8515977,8.2934187 11.0151669,8.02261267 10.9975758,7.65460186 C10.9975758,7.30585474 10.6742827,7 10.2486364,7 L9.74893943,7 C9.35876365,7 9.05459297,7.25700294 9.00660741,7.56846085 L9,7.65460186 C9,8.20688661 8.55228475,8.65460186 8,8.65460186 C7.44771525,8.65460186 7,8.20688661 7,7.65460186 C7,6.17572623 8.24276058,5 9.74893943,5 L10.2486364,5 Z"></path></clipPath></defs><g transform="translate(2.0 2.0)"><g clip-path="url(#i0)"><polygon points="0,0 20,0 20,20 0,20 0,0" stroke="none" fill="#7B798E"></polygon></g></g></svg>