<svg width="16" height="16" viewBox="0 0 16 16" xmlns="http://www.w3.org/2000/svg">
    <defs>
        <clipPath id="r93sup4ska">
            <path d="M1920 0v7862H0V0h1920z"/>
        </clipPath>
        <clipPath id="v50tejonub">
            <path d="M788 0c6.627 0 12 5.373 12 12v582c0 6.627-5.373 12-12 12H12c-6.627 0-12-5.373-12-12V12C0 5.373 5.373 0 12 0h776z"/>
        </clipPath>
        <clipPath id="z0ktswim4c">
            <path d="M1.203 6.658c.084.073.257.192.518.36V8.02l3.343 1.945-.008-.483c1.009.447 1.786.716 2.331.808l.017.002-1.404.82-4.797-2.8V6.658zM6 0l4.797 2.765v4.22c.462.328.863.748 1.203 1.26a10.803 10.803 0 0 0-.51-.208c.318.701.36 1.737-.777 2.005-2.719.64-6.276-1.128-7.621-2.039a27.51 27.51 0 0 0 1.955.715v-.435A12.701 12.701 0 0 1 2.09 6.809C.99 6.069.13 5.139 0 4.979c.184.05.34.08.468.092-.418-.76.025-1.546.735-1.863v-.443L6 0zm0 .593L1.721 3.066v2.013c-.183-.175-.46-.626-.518-.919-.183.134-.214.428-.1.719.497 1.265 2.621 2.645 3.944 3.368V4.87H2.975L2.24 3.241h7.562l-.735 1.63H6.994v4.363a11.45 11.45 0 0 0 1.722.223c2.315.109 2.473-.56 2.08-1.12l-1.336.777a4.245 4.245 0 0 1-1.003-.016l1.822-1.045V3.066L6 .593z"/>
        </clipPath>
    </defs>
    <g clip-path="url(#r93sup4ska)" transform="translate(-816 -3484)">
        <g clip-path="url(#v50tejonub)" transform="translate(560 3022)">
            <g clip-path="url(#z0ktswim4c)" transform="translate(258 464.667)">
                <path fill="#FFF" d="M0 0h12v11.111H0V0z"/>
            </g>
        </g>
    </g>
</svg>
