<?xml version="1.0" encoding="UTF-8"?><svg version="1.1" width="16px" height="16px" viewBox="0 0 16.0 16.0" xmlns="http://www.w3.org/2000/svg" xmlns:xlink="http://www.w3.org/1999/xlink"><defs><clipPath id="i0"><path d="M5,0 C7.76142375,0 10,1.11928813 10,2.5 L10.0005217,3.13184187 C12.3087597,3.54745166 14,4.89804072 14,6.5 C14,8.43299662 11.5375661,10 8.5,10 C5.61890485,10 3.25521567,8.59027742 3.0193441,6.79563968 C1.24357912,6.41295548 0,5.5290911 0,4.5 L0,2.5 L0.00650596897,2.37135033 C0.140421609,1.05042567 2.32487074,0 5,0 Z M9.99003474,4.65701794 L9.97418556,4.75561048 C9.7181356,6.01625067 7.58883476,7 5,7 C4.88244924,7 4.76584593,6.99797173 4.65032243,6.99398135 C5.11074751,7.76947488 6.59294218,8.5 8.5,8.5 C10.8123076,8.5 12.5,7.42601393 12.5,6.5 C12.5,5.7880051 11.5022723,4.98853224 9.99003474,4.65701794 Z"></path></clipPath></defs><g transform="translate(1.0 3.0)"><g clip-path="url(#i0)"><polygon points="0,0 14,0 14,10 0,10 0,0" stroke="none" fill="#7B798E"></polygon></g></g></svg>