<?xml version="1.0" encoding="UTF-8"?><svg version="1.1" width="16px" height="16px" viewBox="0 0 16.0 16.0" xmlns="http://www.w3.org/2000/svg" xmlns:xlink="http://www.w3.org/1999/xlink"><defs><clipPath id="i0"><path d="M1.78764199,0.0999057308 L2.95938467,1.20890144 C3.1057922,1.34746882 3.11214789,1.57848663 2.9735805,1.72489416 C2.96897961,1.72975537 2.96424588,1.7344891 2.95938467,1.73908999 L2.322,2.342 L2.32230691,12.4895481 L2.84208634,13.4734385 C2.93624878,13.6516785 2.86809041,13.8725044 2.68985034,13.9666668 C2.63730646,13.9944252 2.57877965,14.0089346 2.51935416,14.0089346 L0.519906247,14.0089346 C0.318322308,14.0089346 0.154906238,13.8455186 0.154906238,13.6439346 C0.154906238,13.5845091 0.169415662,13.5259823 0.197174069,13.4734385 L0.716953497,12.4895481 L0.716,2.309 L0.114102428,1.73908999 C-0.0323050992,1.60052261 -0.0386607899,1.3695048 0.0999065958,1.22309727 C0.104507486,1.21823606 0.10924122,1.21350233 0.114102428,1.20890144 L1.2858451,0.0999057308 C1.42658963,-0.0333019103 1.64689747,-0.0333019103 1.78764199,0.0999057308 Z M6.4982216,1.85384235 C7.07565149,1.85384235 7.59199996,1.91061292 8.04727457,2.02412382 C8.70663515,2.18850401 9.17312221,2.7756137 9.1842265,3.45506489 L9.1888103,3.6531053 C9.21017667,4.35456425 9.28171984,4.78444145 9.40343981,4.9427369 C9.67022743,5.2896912 10.0742304,6.03975753 11.1732394,6.03975753 C11.7706825,6.03975753 12.5049965,5.92699717 13.3761352,5.70129535 C13.439345,5.68517695 13.5064437,5.70089787 13.555915,5.743417 C13.6396838,5.81541372 13.6492269,5.94168662 13.5772302,6.02545541 L13.3632519,6.27242733 C11.8036551,8.04220125 10.4837177,8.92708821 9.40343981,8.92708821 C7.57065595,8.92708821 8.00070681,7.47872064 6.4982216,7.47872064 C5.60905556,7.47872064 4.72848086,7.85915995 3.8564975,8.62003858 C3.82120665,8.65244274 3.7750017,8.66989582 3.72710782,8.67017087 C3.61665269,8.67080521 3.52659688,8.58177786 3.52595925,8.47132275 L3.52595925,3.06600252 C3.52622013,3.00692067 3.55258877,2.95097654 3.60092396,2.91669246 C4.43290533,2.20812572 5.39867121,1.85384235 6.4982216,1.85384235 Z"></path></clipPath></defs><g transform="translate(1.0112106643616787 0.991065353460229)"><g clip-path="url(#i0)"><polygon points="3.48332474e-15,9.14546217e-15 13.6255569,9.14546217e-15 13.6255569,14.0089346 3.48332474e-15,14.0089346 3.48332474e-15,9.14546217e-15" stroke="none" fill="#7B798E"></polygon></g></g></svg>