<?xml version="1.0" encoding="UTF-8"?><svg version="1.1" width="16px" height="16px" viewBox="0 0 16.0 16.0" xmlns="http://www.w3.org/2000/svg" xmlns:xlink="http://www.w3.org/1999/xlink"><defs><clipPath id="i0"><path d="M13.652,7.37188088e-13 C13.8441951,7.37188088e-13 14,0.155804907 14,0.348 L14,2.95032541 C14,3.16031311 13.9051935,3.35907622 13.7420009,3.49122393 L6.75934125,9.14554008 C6.74971647,9.15333389 6.7405146,9.16163594 6.73177493,9.17041078 C6.59614564,9.30658585 6.59658808,9.52692682 6.73276315,9.66255611 L8.09621581,11.0205442 C8.23283332,11.1577074 8.23239088,11.3780484 8.09621581,11.5136777 L6.70394494,12.9003685 C6.5681564,13.0356128 6.34857636,13.0356128 6.21278783,12.9003685 L4.81853653,11.5117052 C4.682748,11.3764609 4.46316796,11.3764609 4.32737943,11.5117052 L2.93312813,12.9003685 C2.7973396,13.0356128 2.57775955,13.0356128 2.44197102,12.9003685 L1.04970014,11.5136777 C0.913082631,11.3765144 0.913525073,11.1561734 1.04970014,11.0205442 L2.4399906,9.63582588 C2.57660811,9.49866259 2.57616567,9.27832162 2.4399906,9.14269233 L1.04970014,7.75797406 C0.913082631,7.62081077 0.913525073,7.4004698 1.04970014,7.26484051 L2.44197102,5.87814976 C2.57775955,5.74290546 2.7973396,5.74290546 2.93312813,5.87814976 L4.3006584,7.24019907 C4.3088056,7.24831361 4.31734997,7.25601936 4.32626008,7.26328795 C4.47518679,7.38477783 4.69440274,7.36253588 4.81589261,7.21360917 L10.4916606,0.25604625 C10.6238402,0.0940156666 10.8218658,7.35411732e-13 11.0309719,7.37188088e-13 L13.652,7.37188088e-13 Z M9.05080294,0 L6.57620441,3.28624069 C3.92103881,2.60205986 1.72897067,3.01329259 0,4.51993889 C1.74192423,1.5066463 4.75885855,0 9.05080294,0 Z"></path></clipPath></defs><g transform="translate(1.0 1.0)"><g clip-path="url(#i0)"><polygon points="0,0 14,0 14,13.0018017 0,13.0018017 0,0" stroke="none" fill="#7B798E"></polygon></g></g></svg>