<svg width="16" height="16" viewBox="0 0 16 16" xmlns="http://www.w3.org/2000/svg">
    <path d="M9.448 1.333 8.115 2.667H3.733c-.588 0-1.066.478-1.066 1.066v8.534c0 .588.478 1.066 1.066 1.066h8.534c.588 0 1.066-.478 1.066-1.066V7.885l1.334-1.333v5.715c0 1.323-1.077 2.4-2.4 2.4H3.733a2.403 2.403 0 0 1-2.4-2.4V3.733c0-1.323 1.077-2.4 2.4-2.4h5.715zM12.667 0 16 3.333 9.333 10H6V6.667L12.667 0zm-1.334 3.333-4 4v1.334h1.334l4-4.001-1.334-1.333zM12.667 2l-.668.667L13.332 4 14 3.333 12.667 2z" fill="#FFF" fill-rule="nonzero"/>
</svg>
