<?xml version="1.0" encoding="UTF-8"?><svg version="1.1" width="16px" height="16px" viewBox="0 0 16.0 16.0" xmlns="http://www.w3.org/2000/svg" xmlns:xlink="http://www.w3.org/1999/xlink"><defs><clipPath id="i0"><path d="M12.2248305,3 C13.2233013,4.31888503 13.8676188,6.02603368 13.9817776,7.89987144 L14,8.35000002 L14,8.64999998 L13.995,8.746 L13.9930825,8.87018511 C13.919554,10.8341577 13.2639981,12.6273584 12.2248305,14 L1.76966813,14 C0.774376777,12.6822027 0.132228936,10.972009 0.0182376786,9.10056847 L0.000760602593,8.69921392 L0,8.35000002 L0.00452426135,8.20047728 C0.0646772765,6.21169552 0.721246359,4.38814361 1.76966813,3 L12.2248305,3 Z M12.312673,10.2509075 L1.68680375,10.2504373 C1.85181038,11.0084347 2.12264009,11.7223904 2.48530491,12.3620581 L2.567,12.499 L11.428,12.499 L11.5121081,12.3600355 C11.8759052,11.7205689 12.1473171,11.0078743 12.312673,10.2509075 Z M3.41053393,4.49599827 L2.567,4.499 L2.4795614,4.6479967 C2.11889371,5.28630497 1.84933156,5.99780211 1.68534813,6.74962193 L12.3128912,6.75009166 C12.1610865,6.05473148 11.9197904,5.39671581 11.5995986,4.79848701 L11.5131819,5.10948968 C11.2546138,6.11985865 10.6368093,6.18879834 10.2633147,6.18879834 C9.91855046,6.18879834 9.40290545,5.97114796 9.13232225,5.41951204 L9.07002261,5.27457771 C8.82426727,4.61579398 8.54317177,4.53280033 8.19696369,4.53280033 C7.89403163,4.53280033 7.64950195,4.74877671 7.41943372,4.92314709 L7.12709206,5.13532649 C6.88744163,5.30367541 6.54650121,5.49122525 5.87607824,5.49122525 C5.02258309,5.49122525 4.09462453,4.53559139 3.41053393,4.49599827 Z M12.25,0 C12.9403559,0 13.5,0.44771525 13.5,1 C13.5,1.55228475 12.9403559,2 12.25,2 L1.75,2 C1.05964406,2 0.5,1.55228475 0.5,1 C0.5,0.44771525 1.05964406,0 1.75,0 L12.25,0 Z"></path></clipPath></defs><g transform="translate(1.0 1.0000000000000142)"><g clip-path="url(#i0)"><polygon points="0,0 14,0 14,14 0,14 0,0" stroke="none" fill="#FFB900"></polygon></g></g></svg>