<svg width="16" height="16" viewBox="0 0 16 16" xmlns="http://www.w3.org/2000/svg">
    <defs>
        <clipPath id="9g3qpijgxa">
            <path d="M1920 0v7862H0V0h1920z"/>
        </clipPath>
        <clipPath id="t4d4qdussb">
            <path d="M788 0c6.627 0 12 5.373 12 12v582c0 6.627-5.373 12-12 12H12c-6.627 0-12-5.373-12-12V12C0 5.373 5.373 0 12 0h776z"/>
        </clipPath>
        <clipPath id="mbccomf5tc">
            <path d="M4.121 0c.134 0 .242.109.242.242V8.97h5.091a.243.243 0 0 1 .19.394l-1.251 1.25a.243.243 0 0 1-.15.053H1.211a.242.242 0 0 1-.194-.388l.921-.905V1.293L1.26.388A.242.242 0 0 1 1.454 0zM1.454 2.361v.72a4.34 4.34 0 0 0-.97 2.737c0 .997.343 1.963.97 2.736v.721a4.835 4.835 0 0 1 0-6.914zM4.848.97a4.854 4.854 0 0 1 4.849 4.848c0 .949-.28 1.876-.804 2.667h-.598a4.337 4.337 0 0 0 .917-2.667 4.369 4.369 0 0 0-4.364-4.363zm0 .97a3.883 3.883 0 0 1 3.879 3.878 3.86 3.86 0 0 1-1.07 2.667H4.849zM1.454 3.943v3.748a3.853 3.853 0 0 1 0-3.748z"/>
        </clipPath>
    </defs>
    <g clip-path="url(#9g3qpijgxa)" transform="translate(-939 -3088)">
        <g clip-path="url(#t4d4qdussb)" transform="translate(560 3022)">
            <g clip-path="url(#mbccomf5tc)" transform="translate(382.333 68.667)">
                <path fill="#7B798E" d="M0 0h9.697v10.667H0V0z"/>
            </g>
        </g>
    </g>
</svg>
