<?xml version="1.0" encoding="UTF-8"?><svg version="1.1" width="16px" height="16px" viewBox="0 0 16.0 16.0" xmlns="http://www.w3.org/2000/svg" xmlns:xlink="http://www.w3.org/1999/xlink"><defs><clipPath id="i0"><path d="M1.49111111,0 C2.38581241,-1.64353962e-16 3.11111111,0.725298705 3.11111111,1.62 L3.11111111,1.94444444 C3.11111111,2.55087476 3.57380184,3.04923786 4.16541999,3.10577044 L4.27777778,3.11111111 C4.92210999,3.11111111 5.44444444,2.58877665 5.44444444,1.94444444 L5.44444444,1.55555556 C5.44444444,1.34077815 5.61855593,1.16666667 5.83333333,1.16666667 C6.04811074,1.16666667 6.22222222,1.34077815 6.22222222,1.55555556 L6.22222222,2.33333333 C6.22222222,3.19244294 6.91866817,3.88888889 7.77777778,3.88888889 C8.63688739,3.88888889 9.33333333,3.19244294 9.33333333,2.33333333 L9.33333333,1.62 C9.33333333,0.725298705 10.058632,-5.76906434e-17 10.9533333,0 L12.8333333,0 C13.4776655,0 14,0.522334459 14,1.16666667 C14,1.81099887 13.4776655,2.33333333 12.8333333,2.33333333 L12.2248305,2.33333333 C12.3524905,2.51217996 12.4743612,2.69775822 12.5900747,2.88957693 L12.7327837,3.13488332 L12.8770309,3.40246245 L12.9542755,3.5550444 L13.1113108,3.88872744 L13.2434751,4.19881452 L13.3336712,4.42941968 L13.433957,4.70821702 L13.525571,4.98864529 L13.6519147,5.43021543 L13.7220383,5.71399666 L13.7885036,6.02093421 L13.8269673,6.22239159 C13.9402127,6.84829782 14,7.49920638 14,8.16666667 C14,8.70085674 13.9617044,9.2244449 13.8883576,9.73309904 L13.8008889,10.248 L13.7448903,10.518699 L13.6753049,10.8121973 L13.5949608,11.1114932 L13.5141011,11.3813697 L13.4331787,11.6273826 L13.3677259,11.8121286 L13.2264001,12.1763191 L13.1052248,12.4581906 L12.9968112,12.6911857 L12.8341069,13.0127456 L12.7166045,13.2271716 L12.5283025,13.5446236 C12.4797563,13.6227118 12.4301768,13.6997268 12.3795896,13.7756343 L12.2248305,14 L1.76966813,14 C1.60990067,13.7756424 1.45923292,13.5405608 1.31838879,13.2957693 L1.15033068,12.9901837 L0.998947596,12.6887974 L0.890517961,12.4547132 L0.750484199,12.1250046 L0.68648501,11.962055 L0.590473834,11.7000652 L0.503278926,11.4401087 L0.403963731,11.1111364 L0.343302988,10.8878023 L0.295082344,10.6945163 L0.225990533,10.3853637 L0.172890815,10.1118194 C0.059737318,9.48518399 0,8.83384817 0,8.16666667 L0.00452426135,7.84899106 C0.017212788,7.40405764 0.0564386262,6.96692163 0.120281829,6.54027249 L0.172666667,6.22144444 L0.215444444,5.99977778 L0.305994297,5.59367251 L0.370746141,5.34203774 L0.443093803,5.08775764 L0.562015588,4.71556815 L0.665775244,4.42590407 L0.7741725,4.15010537 L0.8887931,3.88248389 L0.975551943,3.69365166 L1.07400015,3.49171012 L1.10997172,3.42087526 C1.30736912,3.03625035 1.52811863,2.6725355 1.76966813,2.33333333 L1.16666667,2.33333333 C0.522334459,2.33333333 0,1.81099887 0,1.16666667 C0,0.522334459 0.522334459,0 1.16666667,0 L1.49111111,0 Z M12.2415973,6.22212674 L1.75661866,6.22223924 C1.66366147,6.65864162 1.60189375,7.10831726 1.57370262,7.5656434 L1.55992209,7.87114267 L1.55555556,8.16666667 C1.55555556,8.83394762 1.62526245,9.4873033 1.75806378,10.1117803 L12.2414315,10.1119836 C12.3539988,9.58441647 12.4213106,9.03609161 12.4394501,8.47568255 L12.4444444,8.16666667 C12.4444444,7.49902507 12.3746692,6.84606305 12.2415973,6.22212674 Z"></path></clipPath></defs><g transform="translate(1.0 1.0)"><g clip-path="url(#i0)"><polygon points="0,0 14,0 14,14 0,14 0,0" stroke="none" fill="#7B798E"></polygon></g></g></svg>