<?xml version="1.0" encoding="UTF-8"?><svg version="1.1" width="16px" height="16px" viewBox="0 0 16.0 16.0" xmlns="http://www.w3.org/2000/svg" xmlns:xlink="http://www.w3.org/1999/xlink"><defs><clipPath id="i0"><path d="M6,0 C7.51213721,0 7.6376446,1.32729906 9.08702812,3.68066618 C10.5364116,6.03403331 12.1740562,6.81897176 11.9850391,8.62925416 C11.7960219,10.4395366 9.9209718,10.4996379 9.00008023,11.7668356 C8.07918867,13.0340333 7.51213721,14 6,14 C4.48786279,14 3.92081133,13.0340333 2.99991977,11.7668356 C2.0790282,10.4996379 0.203978058,10.4395366 0.0149609059,8.62925416 C-0.174056246,6.81897176 1.46358836,6.03403331 2.91297188,3.68066618 C4.3623554,1.32729906 4.48786279,0 6,0 Z M9.00008023,6.51701665 C8.64548406,6.07892831 8.04818986,6.18392469 7.7003983,6.51701665 C7.12578616,7.06734251 6.85889394,7.18030413 6,7.18030413 C5.14110606,7.18030413 4.87421384,7.06734251 4.2996017,6.51701665 C3.95181014,6.18392469 3.35451594,6.07892831 2.99991977,6.51701665 C2.54249826,7.08254888 2.99991977,7.82983345 3.79530394,8.8102824 C4.75551107,9.9942071 4.55061648,11.3446778 6,11.4047791 C7.44938352,11.3446778 7.24448893,9.9942071 8.20469606,8.8102824 C9.00008023,7.82983345 9.45750174,7.08254888 9.00008023,6.51701665 Z"></path></clipPath></defs><g transform="translate(2.0 1.0)"><g clip-path="url(#i0)"><polygon points="0,0 12,0 12,14 0,14 0,0" stroke="none" fill="#7B798E"></polygon></g></g></svg>