<?xml version="1.0" encoding="UTF-8"?><svg version="1.1" width="16px" height="16px" viewBox="0 0 16.0 16.0" xmlns="http://www.w3.org/2000/svg" xmlns:xlink="http://www.w3.org/1999/xlink"><defs><clipPath id="i0"><path d="M7,0 C10.1818182,0 12.8990909,2.07333333 14,5 C12.8990909,7.92666667 10.1818182,10 7,10 C3.81818182,10 1.10090909,7.92666667 0,5 C1.10090909,2.07333333 3.81818182,0 7,0 Z M7,2 C5.34314575,2 4,3.34314575 4,5 C4,6.65685425 5.34314575,8 7,8 C8.65685425,8 10,6.65685425 10,5 C10,3.34314575 8.65685425,2 7,2 Z M7,3 C8.1045695,3 9,3.8954305 9,5 C9,6.1045695 8.1045695,7 7,7 C5.8954305,7 5,6.1045695 5,5 C5,3.8954305 5.8954305,3 7,3 Z"></path></clipPath></defs><g transform="translate(1.0 3.0)"><g clip-path="url(#i0)"><polygon points="0,0 14,0 14,10 0,10 0,0" stroke="none" fill="#7B798E"></polygon></g></g></svg>