<?xml version="1.0" encoding="UTF-8"?><svg version="1.1" width="16px" height="16px" viewBox="0 0 16.0 16.0" xmlns="http://www.w3.org/2000/svg" xmlns:xlink="http://www.w3.org/1999/xlink"><defs><clipPath id="i0"><path d="M5.99993099,0 C9.31368828,0 12,2.66444003 12,5.9510742 C12,6.95366191 11.749077,7.89769513 11.3074083,8.72672564 C11.6876574,9.12776073 11.9224319,9.66640589 11.9224319,10.2606568 C11.9224319,11.4988666 10.9101825,12.5027181 9.66164039,12.5027181 C9.48442083,12.5027181 9.31258411,12.480532 9.14709637,12.4423382 L9.0076947,14 L7.80055899,14 L7.80055899,13.0511926 C7.80055899,12.9418066 7.71360547,12.853343 7.60622477,12.853343 C7.49898209,12.853343 7.41189055,12.9418066 7.41189055,13.0511926 L7.41189055,14 L6.19440323,14 L6.19440323,13.0511926 C6.19440323,12.9418066 6.10744971,12.853343 5.99993099,12.853343 C5.89268831,12.853343 5.80559677,12.9418066 5.80559677,13.0511926 L5.80559677,14 L4.58797143,14 L4.58797143,13.0511926 C4.58797143,12.9418066 4.50101791,12.853343 4.39363721,12.853343 C4.28639453,12.853343 4.19944101,12.9418066 4.19944101,13.0511926 L4.19944101,14 L2.9923053,14 L2.86270315,12.5527071 C2.68755391,12.5959559 2.50536558,12.6213717 2.31669025,12.6213717 C1.0681481,12.6213717 0.0558986922,11.6176606 0.0558986922,10.3790295 C0.0558986922,9.75697579 0.311790483,9.19417865 0.724336634,8.78794809 C0.2623788,7.94459489 0,6.97837556 0,5.9510742 C0,2.66444003 2.68631172,0 5.99993099,0 Z M6.0610745,9.62203366 C5.19775025,9.62203366 5.06593975,11.60404 5.06593975,11.60404 L7.01176633,11.60404 C7.01176633,11.60404 6.89016942,9.62203366 6.0610745,9.62203366 Z M9.81594838,6.58702935 L6.90148718,8.40558865 C6.90148718,8.40558865 7.52327387,9.90806604 9.03874953,9.43345169 C10.7561506,8.89578945 9.81594838,6.58702935 9.81594838,6.58702935 Z M2.1839136,6.58702935 C2.1839136,6.58702935 1.2437114,8.89578945 2.96125047,9.43345169 C4.47686415,9.90806604 5.09851282,8.40558865 5.09851282,8.40558865 Z"></path></clipPath></defs><g transform="translate(2.0 1.0)"><g clip-path="url(#i0)"><polygon points="0,0 12,0 12,14 0,14 0,0" stroke="none" fill="#7B798E"></polygon></g></g></svg>