<?xml version="1.0" encoding="UTF-8"?><svg version="1.1" width="16px" height="16px" viewBox="0 0 16.0 16.0" xmlns="http://www.w3.org/2000/svg" xmlns:xlink="http://www.w3.org/1999/xlink"><defs><clipPath id="i0"><path d="M8.52352941,0 C9.38769261,0 10.0882353,0.727316756 10.0882353,1.62450744 L10.0882353,4.24133161 L12.4352941,4.24133161 C13.2994573,4.24133161 14,4.96864836 14,5.86583905 L13.2176471,11.3715521 C12.9865096,12.3952022 12.3485893,13.0575032 11.6529412,12.9960595 L6.17647059,12.9960595 C4.98493268,12.9960595 4.0007766,12.0742175 3.84955677,10.8799959 L3.849,4.241 L4.00111383,4.24123194 C5.64958709,4.2386699 6.95882353,4.17132983 6.95882353,2.43676117 L6.95882353,1.62450744 C6.95882353,0.727316756 7.65936621,0 8.52352941,0 Z M3.129,4.241 L3.12941176,12.1838058 C3.12941176,12.6324012 2.77914042,12.9960595 2.34705882,12.9960595 L0.782352941,12.9960595 C0.350271343,12.9960595 0,12.6324012 0,12.1838058 L0,5.05358533 C0,4.60498999 0.350271343,4.24133161 0.782352941,4.24133161 L3.129,4.241 Z"></path></clipPath></defs><g transform="translate(1.0 1.0)"><g clip-path="url(#i0)"><polygon points="0,0 14,0 14,13 0,13 0,0" stroke="none" fill="#7B798E"></polygon></g></g></svg>