<?xml version="1.0" encoding="UTF-8"?><svg version="1.1" width="16px" height="16px" viewBox="0 0 16.0 16.0" xmlns="http://www.w3.org/2000/svg" xmlns:xlink="http://www.w3.org/1999/xlink"><defs><clipPath id="i0"><path d="M9.83075552,0 C10.7833363,-1.74986246e-16 11.5555556,0.77221928 11.5555556,1.72480004 L11.555,3.333 L16,1.66666667 L16,8.33333333 L11.555,6.666 L11.5555556,8.27519996 C11.5555556,9.22778072 10.7833363,10 9.83075552,10 L1.72480004,10 C0.77221928,10 1.16657498e-16,9.22778072 0,8.27519996 L0,1.72480004 C-1.16657498e-16,0.77221928 0.77221928,1.74986246e-16 1.72480004,0 L9.83075552,0 Z M4.4,3.07692308 L4.4,6.92307692 L8.4,5 L4.4,3.07692308 Z"></path></clipPath></defs><g transform="translate(0.0 3.0)"><g clip-path="url(#i0)"><polygon points="0,0 16,0 16,10 0,10 0,0" stroke="none" fill="#7B798E"></polygon></g></g></svg>