<svg width="28" height="8" viewBox="0 0 28 8" xmlns="http://www.w3.org/2000/svg">
    <defs>
        <clipPath id="w8yzjbvrda">
            <path d="M1920 0v10675H0V0h1920z"/>
        </clipPath>
        <clipPath id="rcp1s5tmwb">
            <path d="M1272 0a8 8 0 0 1 8 8v704a8 8 0 0 1-8 8H8a8 8 0 0 1-8-8V8a8 8 0 0 1 8-8h1264z"/>
        </clipPath>
        <clipPath id="9bwyp31j1c">
            <path d="M1076 0v655H0V0h1076z"/>
        </clipPath>
        <clipPath id="uuzwg4fbgd">
            <path d="M1028 0a8 8 0 0 1 8 8v80a8 8 0 0 1-8 8H8a8 8 0 0 1-8-8V8a8 8 0 0 1 8-8h1020z"/>
        </clipPath>
        <clipPath id="jax2lfcjhe">
            <path d="M3.804 0 4.98 2.382l2.628.382-1.902 1.854.45 2.618L3.803 6l-2.35 1.236.448-2.618L0 2.764l2.629-.382L3.804 0zm10 0 1.176 2.382 2.628.382-1.902 1.854.45 2.618L13.803 6l-2.35 1.236.448-2.618L10 2.764l2.629-.382L13.804 0zm10 0 1.176 2.382 2.628.382-1.902 1.854.45 2.618L23.803 6l-2.35 1.236.448-2.618L20 2.764l2.629-.382L23.804 0z"/>
        </clipPath>
    </defs>
    <g clip-path="url(#w8yzjbvrda)" transform="translate(-1207 -7271)">
        <g clip-path="url(#rcp1s5tmwb)" transform="translate(320 7031)">
            <g clip-path="url(#9bwyp31j1c)" transform="translate(204 65)">
                <g clip-path="url(#uuzwg4fbgd)" transform="translate(18 172)">
                    <g clip-path="url(#jax2lfcjhe)" transform="translate(665.196 3)">
                        <path fill="#EB9C00" d="M0 0h27.608v7.236H0V0z"/>
                    </g>
                </g>
            </g>
        </g>
    </g>
</svg>
