<svg id="Ebene_1" data-name="Ebene 1" xmlns="http://www.w3.org/2000/svg" viewBox="0 0 276.72 141.73"><defs><style>.cls-1,.cls-3{fill:#fff;}.cls-2{fill:#ec1d26;}.cls-3{font-size:27px;font-family:FrutigerNeueLTPro-Bold, Frutiger Neue LT Pro;font-weight:700;}.cls-4{letter-spacing:-0.01em;}.cls-5{letter-spacing:-0.02em;}.cls-6{letter-spacing:-0.02em;}</style></defs><rect class="cls-1" width="276.72" height="141.73"/><rect class="cls-2" x="6.75" y="6.75" width="128.23" height="128.24"/><path class="cls-1" d="M33.79,108H54V60.74H33.79ZM43.87,32.4A11.47,11.47,0,1,0,55.34,43.87,11.47,11.47,0,0,0,43.87,32.4Zm43.87,1.34V54H108V33.74ZM60.74,108H81V33.74H60.74Zm27-27H108V60.74H87.74Z"/><rect class="cls-2" x="141.73" y="6.75" width="128.23" height="128.24"/><path class="cls-1" d="M164.07,33.85c6.19,0,10.8,2.6,10.8,9.73,0,6.75-4.75,9.57-10.8,9.57h-5V33.85Zm-1.31,16.34h1c4.06,0,7.31-1.69,7.31-6.64,0-5.19-3.25-6.66-7.31-6.66h-1Z"/><path class="cls-1" d="M178.33,33.85h10.82v3.21H182V41.7h6.6v3.13H182v5.08h7.26v3.24h-10.9Z"/><path class="cls-1" d="M202.83,37.36a9.28,9.28,0,0,0-3.72-.83c-1.94,0-3.17.86-3.17,2.19s.6,1.93,3.3,3c3.4,1.28,4.84,2.93,4.84,5.78,0,3.71-2.67,6-6.89,6a13.94,13.94,0,0,1-4.84-.83l.34-3.4A9.4,9.4,0,0,0,197,50.36c1.94,0,3.33-.86,3.33-2.41s-.76-2.24-3.54-3.32c-3.24-1.24-4.63-2.79-4.63-5.53,0-3.43,2.64-5.58,6.55-5.58a12.88,12.88,0,0,1,4.42.69Z"/><path class="cls-1" d="M207.39,33.85h3.69v19.3h-3.69Z"/><path class="cls-1" d="M229.71,37.86a10.87,10.87,0,0,0-4.85-1.08c-3.88,0-6.39,2.57-6.39,6.66s2.28,6.69,6.31,6.69a7.44,7.44,0,0,0,2.15-.27V45.05H223V42h7.41V52.32a17.84,17.84,0,0,1-6.15,1c-5.61,0-9.78-3.76-9.78-9.92,0-6,4-9.76,10.38-9.76a15,15,0,0,1,5.08.74Z"/><path class="cls-1" d="M246.37,33.85h3.33v19.3H245l-4.69-9.46c-.95-1.91-2.15-4.67-2.65-5.94h0c.08,1.19.13,4.73.13,6.38v9h-3.33V33.85h4.93L244,43.39c.68,1.38,1.94,4.28,2.49,5.64h.05c-.08-1.41-.16-5.14-.16-7.08Z"/><path class="cls-1" d="M175.65,80.61h-4l-1.59-4.46h-7.63l-1.6,4.46H157l7.18-19.3h4.16Zm-8.12-11.89c-.39-1.16-1-3.38-1.26-4.37h-.05c-.26,1-.94,3.21-1.33,4.37l-1.52,4.5h5.68Z"/><path class="cls-1" d="M188.89,67.69c-.19-.88-.55-2.57-.68-3.62h-.06c-.13,1.05-.42,2.71-.6,3.62l-2.72,12.92h-4.67l-5-19.3h3.95l2.65,11.56c.13.63.71,3.42.86,4.72h.05c.19-1.3.71-4.09.84-4.72l2.39-11.56h4.9l2.51,11.56c.16.66.66,3.45.84,4.72h.05c.19-1.27.71-4,.87-4.72l2.62-11.56h3.66l-4.89,19.3h-4.64Z"/><path class="cls-1" d="M219.28,80.61h-4l-1.6-4.46h-7.62l-1.6,4.46h-3.8l7.18-19.3H212Zm-8.12-11.89c-.39-1.16-1-3.38-1.26-4.37h-.05c-.26,1-.94,3.21-1.34,4.37L207,73.22h5.69Z"/><path class="cls-1" d="M221.74,61.31H227c4.5,0,7.49,1,7.49,5.06a4.35,4.35,0,0,1-3.82,4.56v0c1.28.36,1.75,1.14,2.33,2.58l2.83,7H231.8l-2-5.48c-.76-2-1.1-2.54-3.35-2.54h-1v8h-3.7Zm3.7,8.29h1.07c2.91,0,4.22-.77,4.22-2.71,0-2.1-1.57-2.54-4.22-2.54h-1.07Z"/><path class="cls-1" d="M244,61.31c6.18,0,10.8,2.6,10.8,9.73,0,6.75-4.75,9.57-10.8,9.57h-5V61.31Zm-1.31,16.34h1C247.76,77.65,251,76,251,71c0-5.2-3.25-6.66-7.31-6.66h-1Z"/><text class="cls-3" transform="translate(156.65 108.34)"><tspan class="cls-4">2</tspan><tspan class="cls-5" x="15.69" y="0">0</tspan><tspan class="cls-6" x="31.28" y="0">2</tspan><tspan x="46.96" y="0">2</tspan></text></svg>