<?xml version="1.0" encoding="UTF-8"?>
<svg width="24px" height="24px" viewBox="0 0 24 24" version="1.1" xmlns="http://www.w3.org/2000/svg" xmlns:xlink="http://www.w3.org/1999/xlink">
    <title>Icon/01 Basic/24px/Wifi/Off</title>
    <g id="Icon/01-Basic/24px/Wifi/Off" stroke="none" stroke-width="1" fill="none" fill-rule="evenodd">
        <polygon id="Path" points="0 0 24 0 24 24 0 24"></polygon>
        <path d="M3.61289944,2.20970461 L3.70710678,2.29289322 L21.7071068,20.2928932 C22.0976311,20.6834175 22.0976311,21.3165825 21.7071068,21.7071068 C21.3466228,22.0675907 20.7793918,22.0953203 20.3871006,21.7902954 L20.2928932,21.7071068 L14.7531323,16.1692108 C14.5227557,16.1520192 14.2971953,16.0553557 14.121,15.8792135 C12.9495004,14.7080677 11.0504996,14.7080677 9.879,15.8792135 C9.48841674,16.2696789 8.85525177,16.2695833 8.46478645,15.879 C8.07432114,15.4884167 8.07441674,14.8552518 8.465,14.4647865 C9.34000326,13.5900474 10.4585184,13.1073185 11.602288,13.0165997 L9.90491433,11.3196343 C8.83012004,11.6554717 7.85002561,12.2479267 7.05110474,13.0491074 C6.66113238,13.4401829 6.02796803,13.4410771 5.63689259,13.0511047 C5.24581714,12.6611324 5.24492291,12.027968 5.63489526,11.6368926 C6.42172977,10.8478324 7.34508452,10.216054 8.35510451,9.76916855 L6.85745055,8.27236695 C5.88799121,8.78623534 4.99970437,9.44288858 4.22284283,10.22137 C3.83272547,10.6123008 3.19956083,10.6129602 2.80863003,10.2228428 C2.41769923,9.83272547 2.41703981,9.19956083 2.80715717,8.80863003 C3.58128216,8.03289091 4.44902701,7.35951216 5.38895956,6.8033403 L2.29289322,3.70710678 C1.90236893,3.31658249 1.90236893,2.68341751 2.29289322,2.29289322 C2.65337718,1.93240926 3.22060824,1.90467972 3.61289944,2.20970461 Z M12.01,17 C12.5622847,17 13.01,17.4477153 13.01,18 C13.01,18.5128358 12.6239598,18.9355072 12.1266211,18.9932723 L12,19 C11.4477153,19 11,18.5522847 11,18 C11,17.4871642 11.3860402,17.0644928 11.8833789,17.0067277 L12.01,17 Z M14.6680682,9.40345543 C16.0667268,9.84020369 17.3370154,10.6131204 18.3677487,11.654554 C18.7562512,12.0470896 18.7529817,12.6802462 18.360446,13.0687487 C17.9679104,13.4572512 17.3347538,13.4539817 16.9462513,13.061446 C16.1454641,12.2523456 15.158564,11.6518588 14.0719318,11.3125446 C13.5447514,11.147926 13.2508369,10.5871122 13.4154554,10.0599318 C13.580074,9.53275138 14.1408878,9.2388369 14.6680682,9.40345543 Z M21.1921893,8.80697571 C21.582668,9.19754556 21.5825941,9.83071053 21.1920243,10.2211893 C20.8014544,10.611668 20.1682895,10.6115941 19.7778107,10.2210243 C17.2968477,7.73948232 13.7808102,6.59051279 10.3132274,7.12819095 C9.76746461,7.21281611 9.2564342,6.8389902 9.17180905,6.2932274 C9.08718389,5.74746461 9.4610098,5.2364342 10.0067726,5.15180905 C14.104825,4.51637121 18.260142,5.8742443 21.1921893,8.80697571 Z" id="Shape" fill="#ff4e4e" fill-rule="nonzero"></path>
    </g>
</svg>